<?xml version="1.0" encoding="UTF-8" standalone="no"?>
<svg
   xmlns:dc="http://purl.org/dc/elements/1.1/"
   xmlns:cc="http://creativecommons.org/ns#"
   xmlns:rdf="http://www.w3.org/1999/02/22-rdf-syntax-ns#"
   xmlns:svg="http://www.w3.org/2000/svg"
   xmlns="http://www.w3.org/2000/svg"
   xmlns:sodipodi="http://sodipodi.sourceforge.net/DTD/sodipodi-0.dtd"
   xmlns:inkscape="http://www.inkscape.org/namespaces/inkscape"
   width="210mm"
   height="297mm"
   viewBox="0 0 210 297"
   version="1.1"
   id="svg8"
   inkscape:version="1.0.2 (e86c870879, 2021-01-15)"
   sodipodi:docname="icons.svg">
  <defs
     id="defs2" />
  <sodipodi:namedview
     id="base"
     pagecolor="#ffffff"
     bordercolor="#666666"
     borderopacity="1.0"
     inkscape:pageopacity="0.0"
     inkscape:pageshadow="2"
     inkscape:zoom="15.839192"
     inkscape:cx="304.76591"
     inkscape:cy="144.53745"
     inkscape:document-units="mm"
     inkscape:current-layer="layer1"
     inkscape:document-rotation="0"
     showgrid="false"
     inkscape:window-width="1920"
     inkscape:window-height="1019"
     inkscape:window-x="0"
     inkscape:window-y="0"
     inkscape:window-maximized="1" />
  <metadata
     id="metadata5">
    <rdf:RDF>
      <cc:Work
         rdf:about="">
        <dc:format>image/svg+xml</dc:format>
        <dc:type
           rdf:resource="http://purl.org/dc/dcmitype/StillImage" />
        <dc:title></dc:title>
      </cc:Work>
    </rdf:RDF>
  </metadata>
  <g
     inkscape:label="Layer 1"
     inkscape:groupmode="layer"
     id="layer1">
    <path
       style="fill:#3daee9;fill-opacity:1;fill-rule:nonzero;stroke:none;stroke-width:0.264583"
       d="m 69.116157,36.646785 h -2.116666 l -0.529167,-0.529167 h -1.5875 c -0.291455,0 -0.529167,0.237712 -0.529167,0.529167 v 3.175 c 0,0.291455 0.237712,0.529167 0.529167,0.529167 h 4.233333 c 0.291455,0 0.529167,-0.237712 0.529167,-0.529167 v -2.645833 c 0,-0.291455 -0.237712,-0.529167 -0.529167,-0.529167 z m 0,3.175 h -4.233333 v -2.645833 h 4.233333 z m 0,0"
       id="path846"
       inkscape:export-xdpi="96"
       inkscape:export-ydpi="96"
       inkscape:export-filename="/home/sanath.shetty/path846.png" />
    <path
       style="fill:#76797c;fill-opacity:1;fill-rule:nonzero;stroke:none;stroke-width:0.334581"
       d="m 72.287103,35.915022 c -0.244402,0 -0.445673,0.202579 -0.445673,0.44698 v 3.568 c 0,0.244402 0.201271,0.446981 0.445673,0.446981 h 2.676654 c 0.244402,0 0.445673,-0.202579 0.445673,-0.446981 V 37.25335 l -1.338326,-1.338328 z m 0,0.44698 h 1.561817 v 1.114837 h 1.114837 v 2.453163 h -2.676654 z m 0,0"
       id="path912"
       inkscape:export-xdpi="91.081024"
       inkscape:export-ydpi="91.081024" />
    <path
       style="fill:#76797c;fill-opacity:1;fill-rule:nonzero;stroke:none;stroke-width:0.334581"
       d="m 76.795002,35.843397 c -0.244402,0 -0.445673,0.202579 -0.445673,0.44698 v 3.568 c 0,0.244402 0.201271,0.446981 0.445673,0.446981 h 2.676654 c 0.244402,0 0.445673,-0.202579 0.445673,-0.446981 v -2.676652 l -1.338326,-1.338328 z m 0,0.44698 h 1.561817 v 1.114837 h 1.114837 v 2.453163 h -2.676654 z m 0,0"
       id="path954"
       inkscape:export-xdpi="364.32376"
       inkscape:export-ydpi="364.32376" />
    <path
       style="fill:#3daee9;fill-opacity:1;stroke:none;stroke-width:0.280486px;stroke-linecap:butt;stroke-linejoin:miter;stroke-opacity:1"
       d="m 77.576812,37.852157 -2.52e-4,1.507231 1.217693,-0.763521 z"
       id="path960"
       sodipodi:nodetypes="cccc"
       inkscape:export-xdpi="364.32376"
       inkscape:export-ydpi="364.32376" />
    <path
       style="fill:#76797c;fill-opacity:1;fill-rule:nonzero;stroke:none;stroke-width:0.334581"
       d="m 81.581348,35.87521 c -0.244402,0 -0.445673,0.202579 -0.445673,0.44698 v 3.568 c 0,0.244402 0.201271,0.446981 0.445673,0.446981 h 2.676654 c 0.244402,0 0.445673,-0.202579 0.445673,-0.446981 V 37.213538 L 83.365349,35.87521 Z m 0,0.44698 h 1.561817 v 1.114837 h 1.114837 v 2.453163 h -2.676654 z m 0,0"
       id="path962"
       inkscape:export-xdpi="364.3241"
       inkscape:export-ydpi="364.3241" />
    <rect
       style="fill:#3daee9;fill-opacity:1;stroke:none;stroke-width:0.442275"
       id="rect966"
       width="0.4454416"
       height="1.171"
       x="82.631142"
       y="37.933849"
       inkscape:export-xdpi="364.3241"
       inkscape:export-ydpi="364.3241" />
    <circle
       style="fill:#3daee9;fill-opacity:1;stroke:none;stroke-width:0.499999"
       id="path968"
       cx="82.669579"
       cy="39.083084"
       r="0.41330716"
       inkscape:export-xdpi="364.3241"
       inkscape:export-ydpi="364.3241" />
    <rect
       style="fill:#3daee9;fill-opacity:1;stroke:none;stroke-width:0.383615"
       id="rect970"
       width="0.4454416"
       height="0.88097715"
       x="37.933849"
       y="-83.512115"
       transform="rotate(90)"
       inkscape:export-xdpi="364.3241"
       inkscape:export-ydpi="364.3241" />
    <path
       style="fill:#76797c;fill-opacity:1;fill-rule:nonzero;stroke:none;stroke-width:0.334581"
       d="m 86.328745,35.823138 c -0.244402,0 -0.445673,0.202579 -0.445673,0.44698 v 3.568 c 0,0.244402 0.201271,0.446981 0.445673,0.446981 h 2.676654 c 0.244402,0 0.445673,-0.202579 0.445673,-0.446981 v -2.676652 l -1.338326,-1.338328 z m 0,0.44698 h 1.561817 v 1.114837 h 1.114837 v 2.453163 h -2.676654 z m 0,0"
       id="path972"
       inkscape:export-xdpi="364.32443"
       inkscape:export-ydpi="364.32443" />
    <path
       style="fill:#3daee9;fill-opacity:1;stroke:none;stroke-width:0.267854px;stroke-linecap:butt;stroke-linejoin:miter;stroke-opacity:1"
       d="m 87.301846,39.297399 1.57933,2.19e-4 -0.800045,-1.059788 z"
       id="path988"
       sodipodi:nodetypes="cccc"
       inkscape:export-xdpi="364.32443"
       inkscape:export-ydpi="364.32443" />
    <path
       style="fill:#3daee9;fill-opacity:1;stroke:none;stroke-width:0.228753px;stroke-linecap:butt;stroke-linejoin:miter;stroke-opacity:1"
       d="m 86.487909,39.297458 1.573384,1.6e-4 -0.797033,-0.775878 z"
       id="path990"
       sodipodi:nodetypes="cccc"
       inkscape:export-xdpi="364.32443"
       inkscape:export-ydpi="364.32443" />
  </g>
</svg>
