<?xml version="1.0" encoding="UTF-8" standalone="no"?>
<!-- Created with Inkscape (http://www.inkscape.org/) -->

<svg
   width="24"
   height="24"
   viewBox="0 0 6.3499998 6.3499998"
   version="1.1"
   id="svg28"
   inkscape:version="1.1 (c68e22c387, 2021-05-23)"
   sodipodi:docname="search_icon.svg"
   xmlns:inkscape="http://www.inkscape.org/namespaces/inkscape"
   xmlns:sodipodi="http://sodipodi.sourceforge.net/DTD/sodipodi-0.dtd"
   xmlns="http://www.w3.org/2000/svg"
   xmlns:svg="http://www.w3.org/2000/svg">
  <sodipodi:namedview
     id="namedview30"
     pagecolor="#ffffff"
     bordercolor="#999999"
     borderopacity="1"
     inkscape:pageshadow="0"
     inkscape:pageopacity="0"
     inkscape:pagecheckerboard="0"
     inkscape:document-units="mm"
     showgrid="false"
     width="24mm"
     showborder="true"
     units="px"
     inkscape:zoom="22.627417"
     inkscape:cx="9.8332037"
     inkscape:cy="14.71666"
     inkscape:window-width="1920"
     inkscape:window-height="1019"
     inkscape:window-x="1920"
     inkscape:window-y="0"
     inkscape:window-maximized="1"
     inkscape:current-layer="layer1"
     inkscape:snap-global="true"
     inkscape:snap-bbox="false" />
  <defs
     id="defs25" />
  <g
     inkscape:label="Layer 1"
     inkscape:groupmode="layer"
     id="layer1">
    <g
       id="g12608"
       style="fill:#ffffff;fill-opacity:1">
      <path
         id="path11449"
         style="fill:#ffffff;fill-opacity:1;stroke-width:0.542772"
         d="M 2.3381946,0.41170931 A 1.9517913,1.9517913 0 0 0 0.38657282,2.3638921 1.9517913,1.9517913 0 0 0 2.3381946,4.3155139 1.9517913,1.9517913 0 0 0 4.2903775,2.3638921 1.9517913,1.9517913 0 0 0 2.3381946,0.41170931 Z m 0,0.48299694 A 1.4692783,1.4692783 0 0 1 3.8079413,2.3638921 1.4692783,1.4692783 0 0 1 2.3381946,3.833078 1.4692783,1.4692783 0 0 1 0.86900879,2.3638921 1.4692783,1.4692783 0 0 1 2.3381946,0.89470625 Z" />
      <rect
         style="fill:#ffffff;fill-opacity:1;stroke-width:0.542772"
         id="rect11797"
         width="3.2316673"
         height="0.48892093"
         x="5.0455699"
         y="-0.32022548"
         ry="0.22592652"
         transform="rotate(45.820678)"
         rx="0.28518498" />
    </g>
  </g>
</svg>
