<?xml version="1.0" encoding="UTF-8" standalone="no"?>
<svg
   width="100mm"
   height="100mm"
   viewBox="0 0 100 100"
   version="1.1"
   id="svg8"
   inkscape:version="1.2.2 (b0a8486541, 2022-12-01)"
   sodipodi:docname="icons.svg"
   xml:space="preserve"
   inkscape:export-filename="details.svg"
   inkscape:export-xdpi="76.800003"
   inkscape:export-ydpi="76.800003"
   xmlns:inkscape="http://www.inkscape.org/namespaces/inkscape"
   xmlns:sodipodi="http://sodipodi.sourceforge.net/DTD/sodipodi-0.dtd"
   xmlns="http://www.w3.org/2000/svg"
   xmlns:svg="http://www.w3.org/2000/svg"
   xmlns:rdf="http://www.w3.org/1999/02/22-rdf-syntax-ns#"
   xmlns:cc="http://creativecommons.org/ns#"
   xmlns:dc="http://purl.org/dc/elements/1.1/"><defs
     id="defs2"><linearGradient
       id="linearGradient1769"
       x1="445.28"
       x2="445.28"
       y1="179.28"
       y2="200.07001"
       gradientTransform="matrix(0.38956,0,0,0.38184,-165.52,-63.44)"
       gradientUnits="userSpaceOnUse"><stop
         stop-color="#60c0f0"
         offset="0"
         id="stop347" /><stop
         stop-color="#83d4fb"
         offset="1"
         id="stop349" /></linearGradient><linearGradient
       id="linearGradient860"
       x1="8.4666996"
       x2="8.4666996"
       y1="293.29999"
       y2="292.76999"
       gradientTransform="translate(0,-280.07)"
       gradientUnits="userSpaceOnUse"><stop
         stop-color="#008ea2"
         stop-opacity=".25"
         offset="0"
         id="stop352" /><stop
         stop-color="#fff"
         stop-opacity=".15"
         offset="1"
         id="stop354" /></linearGradient><linearGradient
       id="linearGradient868"
       x1="8.4666996"
       x2="8.4666996"
       y1="294.62"
       y2="293.56"
       gradientTransform="matrix(0.99998,0,0,0.99998,0,-280.06)"
       gradientUnits="userSpaceOnUse"><stop
         stop-color="#008ea2"
         stop-opacity=".25098"
         offset="0"
         id="stop357" /><stop
         stop-color="#008ea2"
         stop-opacity=".15"
         offset=".75678"
         id="stop359" /><stop
         stop-color="#fff"
         stop-opacity=".15"
         offset="1"
         id="stop361" /></linearGradient><linearGradient
       id="linearGradient897"
       x1="6.8792"
       x2="6.8792"
       y1="285.35999"
       y2="283.76999"
       gradientTransform="matrix(0.99998,0,0,0.99998,0,-280.06)"
       gradientUnits="userSpaceOnUse"><stop
         offset="0"
         id="stop364" /><stop
         stop-opacity="0"
         offset="1"
         id="stop366" /></linearGradient><linearGradient
       id="linearGradient907"
       x1="1.0583"
       x2="15.875"
       y1="289.59"
       y2="289.59"
       gradientTransform="translate(0,-280.07)"
       gradientUnits="userSpaceOnUse"><stop
         stop-color="#46a2d7"
         stop-opacity=".5"
         offset="0"
         id="stop369" /><stop
         stop-color="#46a2d7"
         stop-opacity="0"
         offset=".10783"
         id="stop371" /><stop
         stop-color="#46a2d7"
         stop-opacity=".095808"
         offset=".89398"
         id="stop373" /><stop
         stop-color="#46a2d7"
         stop-opacity=".5"
         offset="1"
         id="stop375" /></linearGradient></defs><sodipodi:namedview
     id="base"
     pagecolor="#ffffff"
     bordercolor="#666666"
     borderopacity="1.0"
     inkscape:pageopacity="0.0"
     inkscape:pageshadow="2"
     inkscape:zoom="2"
     inkscape:cx="103.75"
     inkscape:cy="223"
     inkscape:document-units="mm"
     inkscape:current-layer="layer1"
     inkscape:document-rotation="0"
     showgrid="false"
     inkscape:window-width="1920"
     inkscape:window-height="1052"
     inkscape:window-x="0"
     inkscape:window-y="0"
     inkscape:window-maximized="1"
     inkscape:pagecheckerboard="0"
     inkscape:showpageshadow="0"
     inkscape:deskcolor="#d1d1d1"><inkscape:grid
       type="xygrid"
       id="grid1446"
       originx="0"
       originy="0" /></sodipodi:namedview><metadata
     id="metadata5"><rdf:RDF><cc:Work
         rdf:about=""><dc:format>image/svg+xml</dc:format><dc:type
           rdf:resource="http://purl.org/dc/dcmitype/StillImage" /></cc:Work></rdf:RDF></metadata><g
     inkscape:label="Layer 1"
     inkscape:groupmode="layer"
     id="layer1"><g
       id="g1084"
       transform="translate(-20.898753,-0.86818021)" /><path
       style="fill:#000000;stroke-width:0.144402"
       id="path3425-9"
       d="" /><path
       style="fill:#000000;stroke-width:0.144402"
       id="path3099-1"
       d="" /><path
       style="fill:#000000;stroke-width:0.144402"
       id="path5269-6"
       d="" /><path
       style="fill:#000000;stroke-width:0.144402"
       id="path5231-0"
       d="" /><g
       style="fill:none;fill-opacity:1;stroke:#3daee9;stroke-width:1.99937;stroke-linecap:round;stroke-linejoin:round;stroke-dasharray:none;stroke-opacity:1"
       id="g576"
       transform="matrix(0.26458333,0,0,0.26458333,31.607444,13.123487)"
       inkscape:export-filename="home.svg"
       inkscape:export-xdpi="69.82"
       inkscape:export-ydpi="69.82"><path
         d="m 3,9 9,-7 9,7 v 11 a 2,2 0 0 1 -2,2 H 5 A 2,2 0 0 1 3,20 Z"
         id="path564"
         style="fill:none;fill-opacity:1;stroke:#3daee9;stroke-width:1.99937;stroke-dasharray:none;stroke-opacity:1" /><polyline
         points="9 22 9 12 15 12 15 22"
         id="polyline566"
         style="fill:none;fill-opacity:1;stroke:#3daee9;stroke-width:1.99937;stroke-dasharray:none;stroke-opacity:1" /></g><g
       style="fill:none;stroke:#3daee9;stroke-width:2;stroke-linecap:round;stroke-linejoin:round;stroke-opacity:1"
       id="g587"
       transform="matrix(0.26458333,0,0,0.26458333,42.304363,13.131736)"
       inkscape:export-filename="moon.svg"
       inkscape:export-xdpi="77.040161"
       inkscape:export-ydpi="77.040161"><path
         d="M 21,12.79 A 9,9 0 1 1 11.21,3 7,7 0 0 0 21,12.79 Z"
         id="path578"
         style="stroke:#3daee9;stroke-opacity:1" /></g><g
       style="fill:none;stroke:#3daee9;stroke-width:2;stroke-linecap:round;stroke-linejoin:round;stroke-opacity:1"
       id="g622"
       transform="matrix(0.26458333,0,0,0.26458333,53.547022,13.123491)"
       inkscape:export-filename="sun.svg"
       inkscape:export-xdpi="64"
       inkscape:export-ydpi="64"><circle
         cx="12"
         cy="12"
         r="5"
         id="circle589"
         style="stroke:#3daee9;stroke-opacity:1" /><line
         x1="12"
         y1="1"
         x2="12"
         y2="3"
         id="line591"
         style="stroke:#3daee9;stroke-opacity:1" /><line
         x1="12"
         y1="21"
         x2="12"
         y2="23"
         id="line593"
         style="stroke:#3daee9;stroke-opacity:1" /><line
         x1="4.2199998"
         y1="4.2199998"
         x2="5.6399999"
         y2="5.6399999"
         id="line595"
         style="stroke:#3daee9;stroke-opacity:1" /><line
         x1="18.360001"
         y1="18.360001"
         x2="19.780001"
         y2="19.780001"
         id="line597"
         style="stroke:#3daee9;stroke-opacity:1" /><line
         x1="1"
         y1="12"
         x2="3"
         y2="12"
         id="line599"
         style="stroke:#3daee9;stroke-opacity:1" /><line
         x1="21"
         y1="12"
         x2="23"
         y2="12"
         id="line601"
         style="stroke:#3daee9;stroke-opacity:1" /><line
         x1="4.2199998"
         y1="19.780001"
         x2="5.6399999"
         y2="18.360001"
         id="line603"
         style="stroke:#3daee9;stroke-opacity:1" /><line
         x1="18.360001"
         y1="5.6399999"
         x2="19.780001"
         y2="4.2199998"
         id="line605"
         style="stroke:#3daee9;stroke-opacity:1" /></g><rect
       style="fill:#3dae4e;fill-opacity:1;stroke:none;stroke-width:0.529;stroke-dasharray:none;stroke-opacity:1"
       id="rect4588"
       width="9.3281097"
       height="8.8359432"
       x="10.89913"
       y="36.144947" /><rect
       style="fill:#76797c;fill-opacity:1;stroke:none;stroke-width:0.529;stroke-dasharray:none;stroke-opacity:1"
       id="rect4588-3"
       width="9.3281097"
       height="8.8359432"
       x="10.89913"
       y="47.860409" /><rect
       style="fill:#ff0000;fill-opacity:1;stroke:none;stroke-width:0.529;stroke-dasharray:none;stroke-opacity:1"
       id="rect4588-6"
       width="9.3281097"
       height="8.8359432"
       x="10.89913"
       y="23.864101" /><rect
       style="fill:#3daee9;fill-opacity:1;stroke:none;stroke-width:0.529;stroke-dasharray:none;stroke-opacity:1"
       id="rect4588-7"
       width="9.3281097"
       height="8.8359432"
       x="10.89913"
       y="12.636096" /><g
       style="fill:none;stroke:#3daee9;stroke-width:2;stroke-linecap:round;stroke-linejoin:round;stroke-opacity:1"
       id="g6408"
       transform="matrix(0.26458333,0,0,0.26458333,31.607444,24.681992)"
       inkscape:export-filename="layout-list.svg"
       inkscape:export-xdpi="76.800003"
       inkscape:export-ydpi="76.800003"><rect
         width="7"
         height="7"
         x="3"
         y="3"
         rx="1"
         id="rect6384"
         style="stroke:#3daee9;stroke-opacity:1" /><rect
         width="7"
         height="7"
         x="3"
         y="14"
         rx="1"
         id="rect6386"
         style="stroke:#3daee9;stroke-opacity:1" /><path
         d="m 14,4 h 7"
         id="path6388"
         style="stroke:#3daee9;stroke-opacity:1" /><path
         d="m 14,9 h 7"
         id="path6390"
         style="stroke:#3daee9;stroke-opacity:1" /><path
         d="m 14,15 h 7"
         id="path6392"
         style="stroke:#3daee9;stroke-opacity:1" /><path
         d="m 14,20 h 7"
         id="path6394"
         style="stroke:#3daee9;stroke-opacity:1" /></g><g
       style="fill:none;stroke:#3daee9;stroke-width:2;stroke-linecap:round;stroke-linejoin:round;stroke-opacity:1"
       id="g6428"
       transform="matrix(0.26458333,0,0,0.26458333,42.84366,24.681992)"
       inkscape:export-filename="layout-grid.svg"
       inkscape:export-xdpi="76.800003"
       inkscape:export-ydpi="76.800003"><rect
         width="7"
         height="7"
         x="3"
         y="3"
         rx="1"
         id="rect6410"
         style="stroke:#3daee9;stroke-opacity:1" /><rect
         width="7"
         height="7"
         x="14"
         y="3"
         rx="1"
         id="rect6412"
         style="stroke:#3daee9;stroke-opacity:1" /><rect
         width="7"
         height="7"
         x="14"
         y="14"
         rx="1"
         id="rect6414"
         style="stroke:#3daee9;stroke-opacity:1" /><rect
         width="7"
         height="7"
         x="3"
         y="14"
         rx="1"
         id="rect6416"
         style="stroke:#3daee9;stroke-opacity:1" /></g><g
       style="fill:none;stroke:#3daee9;stroke-width:2;stroke-linecap:round;stroke-linejoin:round;stroke-opacity:1"
       id="g7035"
       transform="matrix(0.26458333,0,0,0.26458333,54.082637,24.680611)"
       inkscape:export-filename="rotate-cw.svg"
       inkscape:export-xdpi="76.759941"
       inkscape:export-ydpi="76.759941"><path
         d="M 21,12 A 9,9 0 1 1 12,3 c 2.52,0 4.93,1 6.74,2.74 L 21,8"
         id="path7023"
         style="stroke:#3daee9;stroke-opacity:1" /><path
         d="M 21,3 V 8 H 16"
         id="path7025"
         style="stroke:#3daee9;stroke-opacity:1" /></g><g
       style="fill:#3eade9;fill-opacity:0.6;stroke:#ffffff;stroke-width:2;stroke-linecap:round;stroke-linejoin:round"
       id="g7481"
       transform="matrix(0.26458333,0,0,0.26458333,64.789686,24.681992)"
       inkscape:export-filename="arrow-up.svg"
       inkscape:export-xdpi="96"
       inkscape:export-ydpi="96"><path
         d="m 5,12 7,-7 7,7"
         id="path7469"
         style="fill:none;fill-opacity:0.6;stroke:#3daee9;stroke-opacity:0.988235" /><path
         d="M 12,19 V 5"
         id="path7471"
         style="fill:#3eade9;fill-opacity:0.6;stroke:#3daee9;stroke-opacity:1" /></g><g
       style="fill:none;stroke:#3daee9;stroke-width:2;stroke-linecap:round;stroke-linejoin:round;stroke-opacity:1"
       id="g8905"
       transform="matrix(0.26458333,0,0,0.26458333,64.789686,13.123491)"
       inkscape:export-filename="search.svg"
       inkscape:export-xdpi="76.800003"
       inkscape:export-ydpi="76.800003"><circle
         cx="11"
         cy="11"
         r="8"
         id="circle8893"
         style="stroke:#3daee9;stroke-opacity:1" /><path
         d="M 21,21 16.7,16.7"
         id="path8895"
         style="stroke:#3daee9;stroke-opacity:1" /></g><g
       style="fill:none;stroke:#ff0000;stroke-width:2;stroke-linecap:round;stroke-linejoin:round;stroke-opacity:1"
       id="g9333"
       transform="matrix(0.26458333,0,0,0.26458333,31.103416,35.318577)"
       inkscape:export-filename="x.svg"
       inkscape:export-xdpi="109.71"
       inkscape:export-ydpi="109.71"><path
         d="M 18,6 6,18"
         id="path9321"
         style="stroke:#ff0000;stroke-opacity:1" /><path
         d="M 6,6 18,18"
         id="path9323"
         style="stroke:#ff0000;stroke-opacity:1" /></g><g
       style="fill:none;stroke:#3daee9;stroke-width:2;stroke-linecap:round;stroke-linejoin:round;stroke-opacity:1"
       id="g9713"
       transform="matrix(0.26458333,0,0,0.26458333,64.668545,34.684422)"
       inkscape:export-filename="delete.svg"
       inkscape:export-xdpi="69.818275"
       inkscape:export-ydpi="69.818275"><path
         d="M 20,5 H 9 l -7,7 7,7 h 11 a 2,2 0 0 0 2,-2 V 7 A 2,2 0 0 0 20,5 Z"
         id="path9698"
         style="stroke:#3daee9;stroke-opacity:1" /><line
         x1="18"
         x2="12"
         y1="9"
         y2="15"
         id="line9700"
         style="stroke:#3daee9;stroke-opacity:1" /><line
         x1="12"
         x2="18"
         y1="9"
         y2="15"
         id="line9702"
         style="stroke:#3daee9;stroke-opacity:1" /></g><g
       style="fill:none;stroke:#3daee9;stroke-width:2;stroke-linecap:round;stroke-linejoin:round;stroke-opacity:1"
       id="g10627"
       transform="matrix(0.26458333,0,0,0.26458333,42.573661,34.81044)"
       inkscape:export-filename="plus.svg"
       inkscape:export-xdpi="96"
       inkscape:export-ydpi="96"><line
         x1="12"
         x2="12"
         y1="5"
         y2="19"
         id="line10615"
         style="stroke:#3daee9;stroke-opacity:1" /><line
         x1="5"
         x2="19"
         y1="12"
         y2="12"
         id="line10617"
         style="stroke:#3daee9;stroke-opacity:1" /></g><g
       style="fill:none;stroke:#ff0000;stroke-width:2;stroke-linecap:round;stroke-linejoin:round;stroke-opacity:1"
       id="g11139"
       transform="matrix(0.26458333,0,0,0.26458333,53.81864,34.260244)"
       inkscape:export-filename="minus.svg"
       inkscape:export-xdpi="96"
       inkscape:export-ydpi="96"><line
         x1="5"
         x2="19"
         y1="12"
         y2="12"
         id="line11130"
         style="stroke:#ff0000;stroke-opacity:1" /></g><g
       style="fill:none;stroke:#3daee9;stroke-width:2;stroke-linecap:round;stroke-linejoin:round;stroke-opacity:1"
       id="g3171"
       transform="matrix(0.26458333,0,0,0.26458333,76.152536,34.387917)"
       inkscape:export-filename="edit-3.svg"
       inkscape:export-xdpi="76.800232"
       inkscape:export-ydpi="76.800232"><path
         d="m 12,20 h 9"
         id="path3159"
         style="stroke:#3daee9;stroke-opacity:1" /><path
         d="m 16.5,3.5 a 2.1213203,2.1213203 0 0 1 3,3 L 7,19 3,20 4,16 Z"
         id="path3161"
         style="stroke:#3daee9;stroke-opacity:1" /></g><g
       style="fill:none;stroke:#3daee9;stroke-width:2;stroke-linecap:round;stroke-linejoin:round;stroke-opacity:1"
       id="g3828"
       transform="matrix(0.26458333,0,0,0.26458333,32.263129,48.274343)"
       inkscape:export-filename="copy.svg"
       inkscape:export-xdpi="67.733368"
       inkscape:export-ydpi="67.733368"><rect
         width="14"
         height="14"
         x="8"
         y="8"
         rx="2"
         ry="2"
         id="rect3816"
         style="stroke:#3daee9;stroke-opacity:1" /><path
         d="M 4,16 C 2.9,16 2,15.1 2,14 V 4 C 2,2.9 2.9,2 4,2 h 10 c 1.1,0 2,0.9 2,2"
         id="path3818"
         style="stroke:#3daee9;stroke-opacity:1" /></g><g
       style="fill:none;stroke:#3daee9;stroke-width:2;stroke-linecap:round;stroke-linejoin:round;stroke-opacity:1"
       id="g3842"
       transform="matrix(0.26458333,0,0,0.26458333,53.779719,47.455726)"
       inkscape:export-filename="paste.svg"
       inkscape:export-xdpi="85.333336"
       inkscape:export-ydpi="85.333336"><rect
         width="8"
         height="4"
         x="8"
         y="2"
         rx="1"
         ry="1"
         id="rect3830"
         style="stroke:#3daee9;stroke-opacity:1" /><path
         d="m 16,4 h 2 a 2,2 0 0 1 2,2 v 14 a 2,2 0 0 1 -2,2 H 6 A 2,2 0 0 1 4,20 V 6 A 2,2 0 0 1 6,4 h 2"
         id="path3832"
         style="stroke:#3daee9;stroke-opacity:1" /></g><g
       style="fill:none;stroke:#3daee9;stroke-width:2;stroke-linecap:round;stroke-linejoin:round;stroke-opacity:1"
       id="g3865"
       transform="matrix(0.26458333,0,0,0.26458333,43.456301,47.838637)"
       inkscape:export-filename="cut.svg"
       inkscape:export-xdpi="80.842102"
       inkscape:export-ydpi="80.842102"><circle
         cx="6"
         cy="6"
         r="3"
         id="circle3844"
         style="stroke:#3daee9;stroke-opacity:1" /><circle
         cx="6"
         cy="18"
         r="3"
         id="circle3846"
         style="stroke:#3daee9;stroke-opacity:1" /><line
         x1="20"
         x2="8.1199999"
         y1="4"
         y2="15.88"
         id="line3848"
         style="stroke:#3daee9;stroke-opacity:1" /><line
         x1="14.47"
         x2="20"
         y1="14.48"
         y2="20"
         id="line3850"
         style="stroke:#3daee9;stroke-opacity:1" /><line
         x1="8.1199999"
         x2="12"
         y1="8.1199999"
         y2="12"
         id="line3852"
         style="stroke:#3daee9;stroke-opacity:1" /></g><g
       style="fill:none;stroke:#ff0000;stroke-width:2;stroke-linecap:round;stroke-linejoin:round;stroke-opacity:1"
       id="g6133"
       transform="matrix(0.26458333,0,0,0.26458333,63.949061,47.709144)"><path
         d="M 3,6 H 21"
         id="path6118"
         style="stroke:#ff0000;stroke-opacity:1" /><path
         d="m 19,6 v 14 c 0,1 -1,2 -2,2 H 7 C 6,22 5,21 5,20 V 6"
         id="path6120"
         style="stroke:#ff0000;stroke-opacity:1" /><path
         d="M 8,6 V 4 C 8,3 9,2 10,2 h 4 c 1,0 2,1 2,2 v 2"
         id="path6122"
         style="stroke:#ff0000;stroke-opacity:1" /></g><g
       style="fill:none;stroke:#3daee9;stroke-width:2;stroke-linecap:round;stroke-linejoin:round;stroke-opacity:1"
       id="g6729"
       transform="matrix(0.26458333,0,0,0.26458333,33.897542,59.849667)"><path
         d="m 4,20 h 16 a 2,2 0 0 0 2,-2 V 8 A 2,2 0 0 0 20,6 H 12.07 A 2,2 0 0 1 10.41,5.1 L 9.59,3.9 A 2,2 0 0 0 7.93,3 H 4 A 2,2 0 0 0 2,5 v 13 c 0,1.1 0.9,2 2,2 z"
         id="path6714"
         style="stroke:#3daee9;stroke-opacity:1" /><line
         x1="12"
         x2="12"
         y1="10"
         y2="16"
         id="line6716"
         style="stroke:#3daee9;stroke-opacity:1" /><line
         x1="9"
         x2="15"
         y1="13"
         y2="13"
         id="line6718"
         style="stroke:#3daee9;stroke-opacity:1" /></g><g
       style="fill:none;stroke:#3daee9;stroke-width:2;stroke-linecap:round;stroke-linejoin:round;stroke-opacity:1"
       id="g6740"
       transform="matrix(0.26458333,0,0,0.26458333,44.958283,60.052943)"><polygon
         points="12,17.77 5.82,21.02 7,14.14 2,9.27 8.91,8.26 12,2 15.09,8.26 22,9.27 17,14.14 18.18,21.02 "
         id="polygon6731"
         style="stroke:#3daee9;stroke-opacity:1" /></g><g
       style="fill:none;stroke:#3daee9;stroke-width:2;stroke-linecap:round;stroke-linejoin:round;stroke-opacity:1"
       id="g6760"
       transform="matrix(0.26458333,0,0,0.26458333,56.969254,59.820295)"><path
         d="M 17,6 H 3"
         id="path6742"
         style="stroke:#3daee9;stroke-opacity:1" /><path
         d="M 21,12 H 8"
         id="path6744"
         style="stroke:#3daee9;stroke-opacity:1" /><path
         d="M 21,18 H 8"
         id="path6746"
         style="stroke:#3daee9;stroke-opacity:1" /><path
         d="m 3,12 v 6"
         id="path6748"
         style="stroke:#3daee9;stroke-opacity:1" /></g></g></svg>
