<?xml version="1.0" encoding="UTF-8" standalone="no"?>
<svg
   width="4.2289505mm"
   height="4mm"
   viewBox="0 0 4.2289505 4"
   version="1.1"
   id="svg8"
   inkscape:version="1.2 (dc2aedaf03, 2022-05-15)"
   sodipodi:docname="icons.svg"
   xml:space="preserve"
   inkscape:export-filename="new_icons/add_icon.svg"
   inkscape:export-xdpi="92.363678"
   inkscape:export-ydpi="92.363678"
   xmlns:inkscape="http://www.inkscape.org/namespaces/inkscape"
   xmlns:sodipodi="http://sodipodi.sourceforge.net/DTD/sodipodi-0.dtd"
   xmlns="http://www.w3.org/2000/svg"
   xmlns:svg="http://www.w3.org/2000/svg"
   xmlns:rdf="http://www.w3.org/1999/02/22-rdf-syntax-ns#"
   xmlns:cc="http://creativecommons.org/ns#"
   xmlns:dc="http://purl.org/dc/elements/1.1/"><defs
     id="defs2" /><sodipodi:namedview
     id="base"
     pagecolor="#ffffff"
     bordercolor="#666666"
     borderopacity="1.0"
     inkscape:pageopacity="0.0"
     inkscape:pageshadow="2"
     inkscape:zoom="8"
     inkscape:cx="336.6875"
     inkscape:cy="197.5"
     inkscape:document-units="mm"
     inkscape:current-layer="layer1"
     inkscape:document-rotation="0"
     showgrid="false"
     inkscape:window-width="1920"
     inkscape:window-height="1052"
     inkscape:window-x="0"
     inkscape:window-y="0"
     inkscape:window-maximized="1"
     inkscape:pagecheckerboard="0"
     inkscape:showpageshadow="0"
     inkscape:deskcolor="#d1d1d1" /><metadata
     id="metadata5"><rdf:RDF><cc:Work
         rdf:about=""><dc:format>image/svg+xml</dc:format><dc:type
           rdf:resource="http://purl.org/dc/dcmitype/StillImage" /><dc:title /></cc:Work></rdf:RDF></metadata><g
     inkscape:label="Layer 1"
     inkscape:groupmode="layer"
     id="layer1"
     transform="translate(-100.7889,-43.758788)"><g
       id="g10862"><path
         id="path10665"
         style="fill:#3daee9;fill-opacity:1;stroke-width:0.0509554"
         d="m 102.90395,43.758786 c -0.11053,0 -0.16592,0.07417 -0.41829,0.560509 -0.15997,0.30828 -0.29755,0.577479 -0.30573,0.598229 -0.008,0.02075 -0.29876,0.07827 -0.6458,0.127787 -0.55041,0.07854 -0.6411,0.105186 -0.70969,0.208499 -0.0767,0.115522 -0.0664,0.130284 0.4153,0.600418 l 0.49383,0.481986 -0.11067,0.628185 c -0.0609,0.345517 -0.0965,0.665587 -0.0789,0.711286 0.0175,0.0457 0.0803,0.0831 0.13953,0.0831 0.0592,0 0.35945,-0.128859 0.6673,-0.286326 l 0.55971,-0.286325 0.55106,0.286325 c 0.30307,0.157467 0.6004,0.286326 0.66073,0.286326 0.0603,0 0.12397,-0.0374 0.14152,-0.0831 0.0175,-0.0457 -0.0177,-0.364182 -0.0782,-0.707803 l -0.11017,-0.624801 0.49274,-0.486365 c 0.47933,-0.47315 0.4906,-0.489465 0.41471,-0.6042 -0.0677,-0.102295 -0.16173,-0.130331 -0.7091,-0.211485 -0.34707,-0.05146 -0.63772,-0.108781 -0.6459,-0.127388 -0.008,-0.01861 -0.14576,-0.286068 -0.30573,-0.594348 -0.25237,-0.486344 -0.30766,-0.560509 -0.4182,-0.560509 z m -0.01,1.295979 h 0.0182 c 0.11069,0 0.19984,0.08916 0.19984,0.199841 v 0.4583 h 0.45831 c 0.11068,0 0.19974,0.08916 0.19974,0.199841 v 0.01811 c 0,0.110686 -0.0891,0.199841 -0.19974,0.199841 h -0.45831 v 0.4583 c 0,0.110685 -0.0892,0.199741 -0.19984,0.199741 h -0.0182 c -0.11068,0 -0.19974,-0.08906 -0.19974,-0.199741 v -0.4583 h -0.4583 c -0.11069,0 -0.19984,-0.08915 -0.19984,-0.199841 v -0.01811 c 0,-0.110685 0.0892,-0.199841 0.19984,-0.199841 h 0.4583 v -0.4583 c 0,-0.110685 0.0891,-0.199841 0.19974,-0.199841 z"
         inkscape:export-filename="new_icons/add_favourites.svg"
         inkscape:export-xdpi="100"
         inkscape:export-ydpi="100" /></g></g></svg>
