<?xml version="1.0" encoding="UTF-8" standalone="no"?>
<svg
   width="4.4689713mm"
   height="3.9999962mm"
   viewBox="0 0 4.4689713 3.9999962"
   version="1.1"
   id="svg8"
   inkscape:version="1.2 (dc2aedaf03, 2022-05-15)"
   sodipodi:docname="icons.svg"
   xml:space="preserve"
   inkscape:export-filename="new_icons/add_icon.svg"
   inkscape:export-xdpi="92.363678"
   inkscape:export-ydpi="92.363678"
   xmlns:inkscape="http://www.inkscape.org/namespaces/inkscape"
   xmlns:sodipodi="http://sodipodi.sourceforge.net/DTD/sodipodi-0.dtd"
   xmlns="http://www.w3.org/2000/svg"
   xmlns:svg="http://www.w3.org/2000/svg"
   xmlns:rdf="http://www.w3.org/1999/02/22-rdf-syntax-ns#"
   xmlns:cc="http://creativecommons.org/ns#"
   xmlns:dc="http://purl.org/dc/elements/1.1/"><defs
     id="defs2" /><sodipodi:namedview
     id="base"
     pagecolor="#ffffff"
     bordercolor="#666666"
     borderopacity="1.0"
     inkscape:pageopacity="0.0"
     inkscape:pageshadow="2"
     inkscape:zoom="22.627417"
     inkscape:cx="317.24788"
     inkscape:cy="174.83215"
     inkscape:document-units="mm"
     inkscape:current-layer="layer1"
     inkscape:document-rotation="0"
     showgrid="false"
     inkscape:window-width="1920"
     inkscape:window-height="1052"
     inkscape:window-x="0"
     inkscape:window-y="0"
     inkscape:window-maximized="1"
     inkscape:pagecheckerboard="0"
     inkscape:showpageshadow="0"
     inkscape:deskcolor="#d1d1d1" /><metadata
     id="metadata5"><rdf:RDF><cc:Work
         rdf:about=""><dc:format>image/svg+xml</dc:format><dc:type
           rdf:resource="http://purl.org/dc/dcmitype/StillImage" /><dc:title /></cc:Work></rdf:RDF></metadata><g
     inkscape:label="Layer 1"
     inkscape:groupmode="layer"
     id="layer1"
     transform="translate(-82.914911,-43.497431)"><g
       id="g5547"
       transform="matrix(0.21119024,0,0,0.21119024,71.466006,32.919251)"
       style="fill:#3daee9;fill-opacity:1;stroke:none"
       inkscape:export-filename="new_icons/cut.svg"
       inkscape:export-xdpi="101.4932"
       inkscape:export-ydpi="101.4932"><path
         style="fill:#3daee9;fill-opacity:1;stroke:none;stroke-width:0.264583"
         d="m 56.401796,68.56179 c -0.801745,-0.407165 -1.26984,-0.892271 -1.68146,-1.742564 -0.397366,-0.820848 -0.521485,-1.436554 -0.409128,-2.029518 0.08871,-0.468159 0.371012,-1.196353 0.627342,-1.61821 0.286877,-0.472131 1.418043,-1.300527 2.942253,-2.154725 l 2.476198,-1.387712 -2.573506,-1.514589 c -2.181105,-1.283648 -2.649198,-1.681275 -3.069916,-2.607775 -0.273025,-0.601252 -0.499025,-1.323486 -0.502221,-1.604963 -0.0032,-0.281477 0.232325,-1.0037 0.52338,-1.604939 0.3468,-0.716392 0.902814,-1.303149 1.613224,-1.702422 0.805455,-0.452691 1.346214,-0.574095 2.104254,-0.472421 0.561121,0.07526 1.368304,0.384698 1.793739,0.687635 0.425436,0.302937 0.980246,0.986437 1.232911,1.518888 0.298912,0.629911 0.412109,1.320603 0.324041,1.977197 -0.07444,0.555006 -0.386166,1.361342 -0.69272,1.791857 l -0.557371,0.782756 1.187057,0.663459 1.187057,0.663459 5.482704,-3.036501 c 3.98155,-2.205108 5.64425,-2.995957 6.07272,-2.888419 0.3245,0.08145 0.66994,0.399925 0.76763,0.707731 0.11927,0.375766 0.0164,0.71515 -0.31309,1.032916 -0.2699,0.260296 -3.61518,2.223524 -7.43397,4.362727 l -6.94325,3.889461 0.553942,0.77794 c 0.304668,0.427867 0.614849,1.232036 0.689291,1.787042 0.08807,0.656594 -0.02513,1.347286 -0.324041,1.977197 -0.252665,0.532451 -0.807475,1.215951 -1.232911,1.518888 -0.425435,0.302937 -1.214429,0.604582 -1.753318,0.670321 -0.667275,0.0814 -1.334183,-0.06045 -2.090841,-0.444716 z m 2.566252,-2.374321 c 0.291041,-0.291041 0.529166,-0.70776 0.529166,-0.926041 0,-0.218282 -0.238125,-0.635 -0.529166,-0.926042 -0.291042,-0.291042 -0.685004,-0.529167 -0.875472,-0.529167 -0.190468,0 -0.562538,0.158114 -0.826823,0.351363 -0.269301,0.196918 -0.480518,0.682125 -0.480518,1.103846 0,0.42172 0.211217,0.906928 0.480518,1.103845 0.264285,0.19325 0.636355,0.351363 0.826823,0.351363 0.190468,0 0.58443,-0.238125 0.875472,-0.529167 z m 0,-11.377083 c 0.291041,-0.291042 0.529166,-0.70776 0.529166,-0.926042 0,-0.218281 -0.238125,-0.635 -0.529166,-0.926041 -0.291042,-0.291042 -0.685004,-0.529167 -0.875472,-0.529167 -0.190468,0 -0.562538,0.158113 -0.826823,0.351363 -0.269301,0.196917 -0.480518,0.682125 -0.480518,1.103845 0,0.421721 0.211217,0.906928 0.480518,1.103846 0.264285,0.193249 0.636355,0.351363 0.826823,0.351363 0.190468,0 0.58443,-0.238125 0.875472,-0.529167 z m 10.454296,9.756208 c -2.32654,-1.3023 -4.318594,-2.456339 -4.426786,-2.564531 -0.108192,-0.108192 0.32276,-0.480488 0.957676,-0.827323 l 1.15438,-0.63061 3.66928,2.058545 c 2.0181,1.132199 3.87764,2.24181 4.1323,2.465802 0.25466,0.223991 0.46302,0.558893 0.46302,0.744226 0,0.185333 -0.1871,0.524067 -0.41577,0.752742 -0.22868,0.228676 -0.61563,0.405243 -0.8599,0.392371 -0.24427,-0.01287 -2.34766,-1.088922 -4.6742,-2.391222 z"
         id="path5549" /></g></g></svg>
