<?xml version="1.0" encoding="UTF-8" standalone="no"?>
<svg
   width="3.2070007mm"
   height="4.0000038mm"
   viewBox="0 0 3.2070007 4.0000038"
   version="1.1"
   id="svg8"
   inkscape:version="1.2 (dc2aedaf03, 2022-05-15)"
   sodipodi:docname="icons.svg"
   xml:space="preserve"
   inkscape:export-filename="new_icons/add_icon.svg"
   inkscape:export-xdpi="92.363678"
   inkscape:export-ydpi="92.363678"
   xmlns:inkscape="http://www.inkscape.org/namespaces/inkscape"
   xmlns:sodipodi="http://sodipodi.sourceforge.net/DTD/sodipodi-0.dtd"
   xmlns="http://www.w3.org/2000/svg"
   xmlns:svg="http://www.w3.org/2000/svg"
   xmlns:rdf="http://www.w3.org/1999/02/22-rdf-syntax-ns#"
   xmlns:cc="http://creativecommons.org/ns#"
   xmlns:dc="http://purl.org/dc/elements/1.1/"><defs
     id="defs2" /><sodipodi:namedview
     id="base"
     pagecolor="#ffffff"
     bordercolor="#666666"
     borderopacity="1.0"
     inkscape:pageopacity="0.0"
     inkscape:pageshadow="2"
     inkscape:zoom="8"
     inkscape:cx="405.5625"
     inkscape:cy="184"
     inkscape:document-units="mm"
     inkscape:current-layer="layer1"
     inkscape:document-rotation="0"
     showgrid="false"
     inkscape:window-width="1920"
     inkscape:window-height="1052"
     inkscape:window-x="0"
     inkscape:window-y="0"
     inkscape:window-maximized="1"
     inkscape:pagecheckerboard="0"
     inkscape:showpageshadow="0"
     inkscape:deskcolor="#d1d1d1" /><metadata
     id="metadata5"><rdf:RDF><cc:Work
         rdf:about=""><dc:format>image/svg+xml</dc:format><dc:type
           rdf:resource="http://purl.org/dc/dcmitype/StillImage" /><dc:title /></cc:Work></rdf:RDF></metadata><g
     inkscape:label="Layer 1"
     inkscape:groupmode="layer"
     id="layer1"
     transform="translate(-113.17272,-43.672866)"><g
       id="g12768"
       transform="matrix(0.18938953,0,0,0.18938953,84.299901,36.681621)"
       style="fill:#ff0000;fill-opacity:1;stroke:none"><path
         style="fill:#ff0000;fill-opacity:1;stroke:none;stroke-width:0.264583"
         d="m 154.83855,57.74913 c -0.36094,-0.186841 -0.80567,-0.63502 -0.98829,-0.995955 -0.24091,-0.476135 -0.33311,-2.562407 -0.33594,-7.601556 l -0.004,-6.945313 h 7.4203 7.42029 l -0.0781,7.269111 c -0.0769,7.159746 -0.0872,7.278172 -0.68022,7.871354 -0.58472,0.584845 -0.76816,0.604263 -6.35,0.672157 -4.27808,0.05204 -5.9157,-0.01696 -6.40413,-0.269798 z m 4.89549,-5.257771 1.18471,-1.092031 1.18471,1.092031 c 0.6516,0.600617 1.32683,1.092031 1.50052,1.092031 0.1737,0 0.6999,-0.04162 0.96602,-0.282452 0.26612,-0.240835 0.3175,-0.756113 0.3175,-0.955092 0,-0.198979 -0.49141,-0.894901 -1.09203,-1.546493 l -1.09203,-1.184713 1.09203,-1.184714 c 0.60062,-0.651592 1.09203,-1.326826 1.09203,-1.50052 0,-0.173695 -0.049,-0.614445 -0.28985,-0.880565 -0.24084,-0.26612 -0.74871,-0.402951 -0.94769,-0.402951 -0.19898,0 -0.8949,0.491413 -1.5465,1.09203 l -1.18471,1.092031 -1.18471,-1.092031 c -0.6516,-0.600617 -1.32683,-1.09203 -1.50052,-1.09203 -0.1737,0 -0.6922,0.05291 -0.95832,0.293742 -0.26612,0.240835 -0.3252,0.744823 -0.3252,0.943801 0,0.198979 0.49141,0.894901 1.09203,1.546493 l 1.09203,1.184714 -1.09203,1.184713 c -0.60062,0.651592 -1.09203,1.326827 -1.09203,1.500521 0,0.173694 0.0854,0.705381 0.32627,0.9715 0.24084,0.26612 0.71229,0.312016 0.91127,0.312016 0.19898,0 0.8949,-0.491414 1.5465,-1.092031 z m -6.86618,-12.817493 c -0.22868,-0.228676 -0.41578,-0.517827 -0.41578,-0.64256 0,-0.124732 0.1871,-0.413884 0.41578,-0.642559 0.31479,-0.314791 0.97958,-0.415774 2.73712,-0.415774 1.98532,0 2.39066,-0.0766 2.80023,-0.529167 0.3998,-0.441776 0.81491,-0.529166 2.51354,-0.529166 1.69863,0 2.11374,0.08739 2.51354,0.529166 0.40957,0.452569 0.81491,0.529167 2.80023,0.529167 1.75754,0 2.42233,0.100983 2.73712,0.415774 0.22868,0.228675 0.41578,0.517827 0.41578,0.642559 0,0.124733 -0.1871,0.413884 -0.41578,0.64256 -0.35876,0.358765 -1.46265,0.415774 -8.05089,0.415774 -6.58824,0 -7.69213,-0.05701 -8.05089,-0.415774 z"
         id="path12770"
         sodipodi:nodetypes="ssscccsssssscssssscssssscssssscssssssssssssssssss" /></g></g></svg>
