<?xml version="1.0" encoding="UTF-8" standalone="no"?>
<svg
   width="4.4451981mm"
   height="4.0000038mm"
   viewBox="0 0 4.4451981 4.0000038"
   version="1.1"
   id="svg8"
   inkscape:version="1.2 (dc2aedaf03, 2022-05-15)"
   sodipodi:docname="icons.svg"
   xml:space="preserve"
   inkscape:export-filename="new_icons/add_icon.svg"
   inkscape:export-xdpi="92.363678"
   inkscape:export-ydpi="92.363678"
   xmlns:inkscape="http://www.inkscape.org/namespaces/inkscape"
   xmlns:sodipodi="http://sodipodi.sourceforge.net/DTD/sodipodi-0.dtd"
   xmlns="http://www.w3.org/2000/svg"
   xmlns:svg="http://www.w3.org/2000/svg"
   xmlns:rdf="http://www.w3.org/1999/02/22-rdf-syntax-ns#"
   xmlns:cc="http://creativecommons.org/ns#"
   xmlns:dc="http://purl.org/dc/elements/1.1/"><defs
     id="defs2" /><sodipodi:namedview
     id="base"
     pagecolor="#ffffff"
     bordercolor="#666666"
     borderopacity="1.0"
     inkscape:pageopacity="0.0"
     inkscape:pageshadow="2"
     inkscape:zoom="8"
     inkscape:cx="405.5625"
     inkscape:cy="184"
     inkscape:document-units="mm"
     inkscape:current-layer="layer1"
     inkscape:document-rotation="0"
     showgrid="false"
     inkscape:window-width="1920"
     inkscape:window-height="1052"
     inkscape:window-x="0"
     inkscape:window-y="0"
     inkscape:window-maximized="1"
     inkscape:pagecheckerboard="0"
     inkscape:showpageshadow="0"
     inkscape:deskcolor="#d1d1d1" /><metadata
     id="metadata5"><rdf:RDF><cc:Work
         rdf:about=""><dc:format>image/svg+xml</dc:format><dc:type
           rdf:resource="http://purl.org/dc/dcmitype/StillImage" /><dc:title /></cc:Work></rdf:RDF></metadata><g
     inkscape:label="Layer 1"
     inkscape:groupmode="layer"
     id="layer1"
     transform="translate(-118.70019,-43.735045)"><path
       id="rect13742"
       style="fill:#3daeea;fill-opacity:0.980392;stroke:none;stroke-width:0;stroke-opacity:0.945626"
       d="m 119.16315,43.735046 c -0.25648,0 -0.46296,0.220733 -0.46296,0.49491 v 3.010288 c 0,0.274178 0.20648,0.494802 0.46296,0.494802 h 3.51928 c 0.25648,0 0.46296,-0.220624 0.46296,-0.494802 v -3.010288 c 0,-0.274177 -0.20648,-0.49491 -0.46296,-0.49491 z m 0.71042,0.440329 h 0.56216 c 0.0367,0 0.0663,0.02714 0.0663,0.06075 v 0.345138 c 0,0.03362 -0.0296,0.06065 -0.0663,0.06065 h -0.56216 c -0.0367,0 -0.0663,-0.02703 -0.0663,-0.06065 v -0.345138 c 0,-0.03361 0.0296,-0.06075 0.0663,-0.06075 z m 2.19991,0 h 0.56227 c 0.0367,0 0.0663,0.02714 0.0663,0.06075 v 0.345138 c 0,0.03362 -0.0296,0.06065 -0.0663,0.06065 h -0.56227 c -0.0367,0 -0.0662,-0.02703 -0.0662,-0.06065 v -0.345138 c 0,-0.03361 0.0295,-0.06075 0.0662,-0.06075 z m -2.86376,0.0011 h 0.33961 c 0.0367,0 0.0661,0.02703 0.0661,0.06065 v 0.34308 c 0,0.03361 -0.0294,0.06065 -0.0661,0.06065 h -0.33961 c -0.0367,0 -0.0662,-0.02703 -0.0662,-0.06065 v -0.34308 c 0,-0.03362 0.0295,-0.06065 0.0662,-0.06065 z m 2.20002,0 h 0.33961 c 0.0367,0 0.0662,0.02703 0.0662,0.06065 v 0.34308 c 0,0.03361 -0.0295,0.06065 -0.0662,0.06065 h -0.33961 c -0.0367,0 -0.0662,-0.02703 -0.0662,-0.06065 v -0.34308 c 0,-0.03362 0.0295,-0.06065 0.0662,-0.06065 z m -1.53964,0.89517 c 0.001,-5.2e-5 0.002,0 0.003,0 h 0.56216 c 0.0367,0 0.0663,0.02703 0.0663,0.06065 v 0.345138 c 0,0.03361 -0.0296,0.06065 -0.0663,0.06065 h -0.56216 c -0.0367,0 -0.0663,-0.02703 -0.0663,-0.06065 v -0.345138 c 0,-0.03256 0.0277,-0.05903 0.0628,-0.06065 z m 2.20003,0 c 10e-4,-5.2e-5 0.002,0 0.003,0 h 0.56227 c 0.0367,0 0.0663,0.02703 0.0663,0.06065 v 0.345138 c 0,0.03361 -0.0296,0.06065 -0.0663,0.06065 h -0.56227 c -0.0367,0 -0.0662,-0.02703 -0.0662,-0.06065 v -0.345138 c 0,-0.03256 0.0277,-0.05903 0.0628,-0.06065 z m -2.86041,9.64e-4 h 0.33961 c 0.0367,0 0.0661,0.02714 0.0661,0.06075 v 0.342972 c 0,0.03361 -0.0294,0.06064 -0.0661,0.06064 h -0.33961 c -0.0367,0 -0.0662,-0.02703 -0.0662,-0.06064 v -0.342978 c 0,-0.03361 0.0295,-0.06075 0.0662,-0.06075 z m 2.20002,0 h 0.33961 c 0.0367,0 0.0662,0.02714 0.0662,0.06075 v 0.342972 c 0,0.03361 -0.0295,0.06064 -0.0662,0.06064 h -0.33961 c -0.0367,0 -0.0662,-0.02703 -0.0662,-0.06064 v -0.342978 c 0,-0.03361 0.0295,-0.06075 0.0662,-0.06075 z m -1.53964,0.87611 c 0.001,-5.2e-5 0.002,0 0.003,0 h 0.56227 c 0.0367,0 0.0662,0.02703 0.0662,0.06065 v 0.345137 c 0,0.03361 -0.0295,0.06065 -0.0662,0.06065 h -0.56227 c -0.0367,0 -0.0663,-0.02703 -0.0663,-0.06065 v -0.345137 c 0,-0.03256 0.0277,-0.05903 0.0628,-0.06065 z m 2.20003,0 c 10e-4,-5.2e-5 0.002,0 0.003,0 h 0.56227 c 0.0367,0 0.0663,0.02703 0.0663,0.06065 v 0.345137 c 0,0.03361 -0.0296,0.06065 -0.0663,0.06065 h -0.56227 c -0.0367,0 -0.0663,-0.02703 -0.0663,-0.06065 v -0.345137 c 0,-0.03256 0.0278,-0.05903 0.0629,-0.06065 z m -2.8603,9.85e-4 h 0.3394 c 0.0367,0 0.0663,0.02714 0.0663,0.06075 v 0.342971 c 0,0.03361 -0.0296,0.06065 -0.0663,0.06065 h -0.3394 c -0.0367,0 -0.0663,-0.02703 -0.0663,-0.06065 v -0.342971 c 0,-0.03361 0.0296,-0.06075 0.0663,-0.06075 z m 2.19991,0 h 0.33961 c 0.0367,0 0.0661,0.02714 0.0661,0.06075 v 0.342971 c 0,0.03361 -0.0294,0.06065 -0.0661,0.06065 h -0.33961 c -0.0367,0 -0.0662,-0.02703 -0.0662,-0.06065 v -0.342971 c 0,-0.03361 0.0295,-0.06075 0.0662,-0.06075 z m -1.53617,0.878601 h 0.56216 c 0.0367,0 0.0663,0.02703 0.0663,0.06065 v 0.345138 c 0,0.03362 -0.0296,0.06065 -0.0663,0.06065 h -0.56216 c -0.0367,0 -0.0663,-0.02703 -0.0663,-0.06065 v -0.345138 c 0,-0.03361 0.0296,-0.06065 0.0663,-0.06065 z m 2.19991,0 h 0.56227 c 0.0367,0 0.0663,0.02703 0.0663,0.06065 v 0.345138 c 0,0.03362 -0.0296,0.06065 -0.0663,0.06065 h -0.56227 c -0.0367,0 -0.0662,-0.02703 -0.0662,-0.06065 v -0.345138 c 0,-0.03361 0.0295,-0.06065 0.0662,-0.06065 z m -2.86712,0.0011 c 10e-4,-5.2e-5 0.002,0 0.003,0 h 0.33962 c 0.0367,0 0.0661,0.02703 0.0661,0.06065 v 0.342972 c 0,0.03362 -0.0294,0.06075 -0.0661,0.06075 h -0.33962 c -0.0367,0 -0.0662,-0.02714 -0.0662,-0.06075 v -0.342972 c 0,-0.03256 0.0277,-0.05903 0.0628,-0.06065 z m 2.20002,0 c 0.001,-5.2e-5 0.002,0 0.003,0 h 0.33961 c 0.0367,0 0.0662,0.02703 0.0662,0.06065 v 0.342972 c 0,0.03362 -0.0295,0.06075 -0.0662,0.06075 h -0.33961 c -0.0367,0 -0.0662,-0.02714 -0.0662,-0.06075 v -0.342972 c 0,-0.03256 0.0277,-0.05903 0.0628,-0.06065 z" /></g></svg>
