<?xml version="1.0" encoding="UTF-8" standalone="no"?>
<svg
   width="4.5784149mm"
   height="4.5784225mm"
   viewBox="0 0 4.5784149 4.5784225"
   version="1.1"
   id="svg8"
   inkscape:version="1.2.2 (b0a8486541, 2022-12-01)"
   sodipodi:docname="icons.svg"
   xml:space="preserve"
   inkscape:export-filename="new_icons/downloads.svg"
   inkscape:export-xdpi="67.733368"
   inkscape:export-ydpi="67.733368"
   xmlns:inkscape="http://www.inkscape.org/namespaces/inkscape"
   xmlns:sodipodi="http://sodipodi.sourceforge.net/DTD/sodipodi-0.dtd"
   xmlns="http://www.w3.org/2000/svg"
   xmlns:svg="http://www.w3.org/2000/svg"
   xmlns:rdf="http://www.w3.org/1999/02/22-rdf-syntax-ns#"
   xmlns:cc="http://creativecommons.org/ns#"
   xmlns:dc="http://purl.org/dc/elements/1.1/"><defs
     id="defs2" /><sodipodi:namedview
     id="base"
     pagecolor="#ffffff"
     bordercolor="#666666"
     borderopacity="1.0"
     inkscape:pageopacity="0.0"
     inkscape:pageshadow="2"
     inkscape:zoom="5.6568543"
     inkscape:cx="288.05762"
     inkscape:cy="174.65537"
     inkscape:document-units="mm"
     inkscape:current-layer="layer1"
     inkscape:document-rotation="0"
     showgrid="false"
     inkscape:window-width="1920"
     inkscape:window-height="1052"
     inkscape:window-x="0"
     inkscape:window-y="0"
     inkscape:window-maximized="1"
     inkscape:pagecheckerboard="0"
     inkscape:showpageshadow="0"
     inkscape:deskcolor="#d1d1d1" /><metadata
     id="metadata5"><rdf:RDF><cc:Work
         rdf:about=""><dc:format>image/svg+xml</dc:format><dc:type
           rdf:resource="http://purl.org/dc/dcmitype/StillImage" /><dc:title /></cc:Work></rdf:RDF></metadata><g
     inkscape:label="Layer 1"
     inkscape:groupmode="layer"
     id="layer1"
     transform="translate(-70.641603,-51.589541)"><path
       id="path4795"
       style="fill:#3dae4e;fill-opacity:1;stroke:none;stroke-width:0.21463;stroke-dasharray:none;stroke-opacity:0.945626"
       d="m 72.93102,51.589538 a 2.2890588,2.2890588 0 0 0 -2.289421,2.28942 2.2890588,2.2890588 0 0 0 2.289421,2.289003 2.2890588,2.2890588 0 0 0 2.289002,-2.289003 2.2890588,2.2890588 0 0 0 -2.289002,-2.28942 z m -0.02428,0.596839 c 0.145762,0 0.264937,0.119176 0.264937,0.264936 v 2.272262 l 0.606466,-0.606885 c 0.103377,-0.103377 0.2708,-0.103377 0.374176,0 0.103378,0.103377 0.103378,0.270798 0,0.374176 l -1.058491,1.058491 c -0.103377,0.103376 -0.270799,0.103376 -0.374176,0 l -1.058491,-1.058491 c -0.103377,-0.103378 -0.103377,-0.270799 0,-0.374176 0.04962,-0.04962 0.116794,-0.07743 0.187088,-0.07743 0.0703,0 0.137464,0.02781 0.187088,0.07743 l 0.606885,0.606885 v -2.272262 c 0,-0.14576 0.118755,-0.264936 0.264518,-0.264936 z"
       inkscape:export-filename="new_icons/downloads.svg"
       inkscape:export-xdpi="88.760002"
       inkscape:export-ydpi="88.760002" /></g></svg>
