<?xml version="1.0" encoding="UTF-8" standalone="no"?>
<svg
   width="4.534874mm"
   height="4.0868874mm"
   viewBox="0 0 4.534874 4.0868874"
   version="1.1"
   id="svg8"
   inkscape:version="1.2.2 (b0a8486541, 2022-12-01)"
   sodipodi:docname="icons.svg"
   xml:space="preserve"
   inkscape:export-filename="new_icons/downloads.svg"
   inkscape:export-xdpi="67.733368"
   inkscape:export-ydpi="67.733368"
   xmlns:inkscape="http://www.inkscape.org/namespaces/inkscape"
   xmlns:sodipodi="http://sodipodi.sourceforge.net/DTD/sodipodi-0.dtd"
   xmlns="http://www.w3.org/2000/svg"
   xmlns:svg="http://www.w3.org/2000/svg"
   xmlns:rdf="http://www.w3.org/1999/02/22-rdf-syntax-ns#"
   xmlns:cc="http://creativecommons.org/ns#"
   xmlns:dc="http://purl.org/dc/elements/1.1/"><defs
     id="defs2" /><sodipodi:namedview
     id="base"
     pagecolor="#ffffff"
     bordercolor="#666666"
     borderopacity="1.0"
     inkscape:pageopacity="0.0"
     inkscape:pageshadow="2"
     inkscape:zoom="5.6568543"
     inkscape:cx="288.05762"
     inkscape:cy="174.65537"
     inkscape:document-units="mm"
     inkscape:current-layer="layer1"
     inkscape:document-rotation="0"
     showgrid="false"
     inkscape:window-width="1920"
     inkscape:window-height="1052"
     inkscape:window-x="0"
     inkscape:window-y="0"
     inkscape:window-maximized="1"
     inkscape:pagecheckerboard="0"
     inkscape:showpageshadow="0"
     inkscape:deskcolor="#d1d1d1" /><metadata
     id="metadata5"><rdf:RDF><cc:Work
         rdf:about=""><dc:format>image/svg+xml</dc:format><dc:type
           rdf:resource="http://purl.org/dc/dcmitype/StillImage" /><dc:title /></cc:Work></rdf:RDF></metadata><g
     inkscape:label="Layer 1"
     inkscape:groupmode="layer"
     id="layer1"
     transform="translate(-64.24933,-51.63037)"><path
       id="path2333"
       style="fill:#3dae4e;fill-opacity:1;stroke-width:0.264583"
       d="m 66.579656,51.630436 c -0.474296,-0.0086 -1.501905,0.839742 -2.064567,1.3432 -0.38501,0.332268 -0.262682,0.526007 -0.177931,0.644862 0.05064,0.07028 0.243913,0.05737 0.329696,0.05633 v 0.871199 c 0,1.19195 -0.150476,1.169954 0.79375,1.169954 h 0.469739 V 54.25468 c 0,-0.205238 0.165281,-0.37052 0.37052,-0.37052 h 0.418579 c 0.205239,0 0.37052,0.165282 0.37052,0.37052 v 1.461299 h 0.487309 c 0.93495,0 0.79375,0.08685 0.79375,-1.169954 v -0.871199 c 0.08578,10e-4 0.301791,0.0124 0.352433,-0.05788 0.08475,-0.118856 0.127915,-0.319261 -0.198438,-0.609848 -0.409912,-0.378127 -1.478073,-1.368234 -1.94536,-1.376662 z"
       inkscape:export-filename="new_icons/home.svg"
       inkscape:export-xdpi="90.715767"
       inkscape:export-ydpi="90.715767"
       sodipodi:nodetypes="scccsscsssscsscccs" /></g></svg>
