<?xml version="1.0" encoding="UTF-8" standalone="no"?>
<svg
   width="4.4107742mm"
   height="4mm"
   viewBox="0 0 4.4107742 4"
   version="1.1"
   id="svg8"
   inkscape:version="1.2 (dc2aedaf03, 2022-05-15)"
   sodipodi:docname="icons.svg"
   xml:space="preserve"
   inkscape:export-filename="new_icons/add_icon.svg"
   inkscape:export-xdpi="92.363678"
   inkscape:export-ydpi="92.363678"
   xmlns:inkscape="http://www.inkscape.org/namespaces/inkscape"
   xmlns:sodipodi="http://sodipodi.sourceforge.net/DTD/sodipodi-0.dtd"
   xmlns="http://www.w3.org/2000/svg"
   xmlns:svg="http://www.w3.org/2000/svg"
   xmlns:rdf="http://www.w3.org/1999/02/22-rdf-syntax-ns#"
   xmlns:cc="http://creativecommons.org/ns#"
   xmlns:dc="http://purl.org/dc/elements/1.1/"><defs
     id="defs2" /><sodipodi:namedview
     id="base"
     pagecolor="#ffffff"
     bordercolor="#666666"
     borderopacity="1.0"
     inkscape:pageopacity="0.0"
     inkscape:pageshadow="2"
     inkscape:zoom="8"
     inkscape:cx="336.6875"
     inkscape:cy="197.5"
     inkscape:document-units="mm"
     inkscape:current-layer="layer1"
     inkscape:document-rotation="0"
     showgrid="false"
     inkscape:window-width="1920"
     inkscape:window-height="1052"
     inkscape:window-x="0"
     inkscape:window-y="0"
     inkscape:window-maximized="1"
     inkscape:pagecheckerboard="0"
     inkscape:showpageshadow="0"
     inkscape:deskcolor="#d1d1d1" /><metadata
     id="metadata5"><rdf:RDF><cc:Work
         rdf:about=""><dc:format>image/svg+xml</dc:format><dc:type
           rdf:resource="http://purl.org/dc/dcmitype/StillImage" /><dc:title /></cc:Work></rdf:RDF></metadata><g
     inkscape:label="Layer 1"
     inkscape:groupmode="layer"
     id="layer1"
     transform="translate(-95.212488,-43.283911)"><path
       id="rect8005"
       style="fill:#3daee9;fill-opacity:1;stroke:none;stroke-width:0;stroke-opacity:0.945626"
       d="m 95.60592,43.283912 c -0.217958,0 -0.39343,0.17547 -0.39343,0.393423 v 2.425425 c 0,0.217953 0.175472,0.393423 0.39343,0.393423 h 1.657877 c -0.01257,-0.07435 -0.01908,-0.149623 -0.01919,-0.225037 2.2e-5,-0.754359 0.611558,-1.365883 1.365917,-1.365906 0.21456,2.2e-5 0.4261,0.05059 0.61748,0.147607 l -0.0193,-0.975577 c -0.004,-0.217911 -0.17547,-0.387169 -0.39341,-0.387169 h -0.78563 -0.785631 l -0.461036,-0.406188 z m 3.004574,1.974566 c -0.55926,3.7e-5 -1.012629,0.453402 -1.012669,1.012668 -1e-5,0.559303 0.453379,1.012727 1.012669,1.012766 0.55935,1.5e-5 1.01278,-0.453425 1.01277,-1.012766 -3e-5,-0.559304 -0.45346,-1.012684 -1.01277,-1.012668 z m 0.002,0.4488 h 0.0189 c 0.10883,0 0.19661,0.08763 0.19661,0.196516 v 0.192105 h 0.1921 c 0.10883,0 0.19652,0.08763 0.19652,0.196516 v 0.01892 c 0,0.108891 -0.0877,0.196515 -0.19652,0.196515 h -0.1921 v 0.192105 c 0,0.108891 -0.0877,0.196613 -0.19661,0.196613 h -0.0189 c -0.10895,0 -0.19662,-0.08773 -0.19662,-0.196613 V 46.50785 h -0.192 c -0.10895,0 -0.19662,-0.08763 -0.19662,-0.196515 v -0.01892 c 0,-0.108891 0.0878,-0.196516 0.19662,-0.196516 h 0.192 v -0.192105 c 0,-0.108891 0.0878,-0.196516 0.19662,-0.196516 z"
       sodipodi:nodetypes="ssssccccsscccscccccssscsssscsssscsssscss" /></g></svg>
