<?xml version="1.0" encoding="UTF-8" standalone="no"?>
<svg
   width="3.5943527mm"
   height="4mm"
   viewBox="0 0 3.5943527 4"
   version="1.1"
   id="svg8"
   inkscape:version="1.2 (dc2aedaf03, 2022-05-15)"
   sodipodi:docname="icons.svg"
   xml:space="preserve"
   inkscape:export-filename="new_icons/add_icon.svg"
   inkscape:export-xdpi="92.363678"
   inkscape:export-ydpi="92.363678"
   xmlns:inkscape="http://www.inkscape.org/namespaces/inkscape"
   xmlns:sodipodi="http://sodipodi.sourceforge.net/DTD/sodipodi-0.dtd"
   xmlns="http://www.w3.org/2000/svg"
   xmlns:svg="http://www.w3.org/2000/svg"
   xmlns:rdf="http://www.w3.org/1999/02/22-rdf-syntax-ns#"
   xmlns:cc="http://creativecommons.org/ns#"
   xmlns:dc="http://purl.org/dc/elements/1.1/"><defs
     id="defs2" /><sodipodi:namedview
     id="base"
     pagecolor="#ffffff"
     bordercolor="#666666"
     borderopacity="1.0"
     inkscape:pageopacity="0.0"
     inkscape:pageshadow="2"
     inkscape:zoom="8"
     inkscape:cx="336.6875"
     inkscape:cy="197.5"
     inkscape:document-units="mm"
     inkscape:current-layer="layer1"
     inkscape:document-rotation="0"
     showgrid="false"
     inkscape:window-width="1920"
     inkscape:window-height="1052"
     inkscape:window-x="0"
     inkscape:window-y="0"
     inkscape:window-maximized="1"
     inkscape:pagecheckerboard="0"
     inkscape:showpageshadow="0"
     inkscape:deskcolor="#d1d1d1" /><metadata
     id="metadata5"><rdf:RDF><cc:Work
         rdf:about=""><dc:format>image/svg+xml</dc:format><dc:type
           rdf:resource="http://purl.org/dc/dcmitype/StillImage" /><dc:title /></cc:Work></rdf:RDF></metadata><g
     inkscape:label="Layer 1"
     inkscape:groupmode="layer"
     id="layer1"
     transform="translate(-89.199282,-43.283911)"><path
       id="rect6207"
       style="fill:#3daee9;fill-opacity:1;stroke:none;stroke-width:0;stroke-opacity:0.945626"
       d="m 90.996456,43.283912 a 0.64264818,0.61765438 0 0 0 -0.603177,0.405654 h -0.760125 c -0.240359,0 -0.433871,0.193511 -0.433871,0.433871 v 2.726701 c 0,0.240359 0.193512,0.433774 0.433871,0.433774 h 2.726702 c 0.24036,0 0.433774,-0.193415 0.433774,-0.433774 v -2.726701 c 0,-0.24036 -0.193414,-0.433871 -0.433774,-0.433871 h -0.759735 a 0.64264818,0.61765438 0 0 0 -0.603665,-0.405654 z m 0,0.484566 a 0.15686087,0.15686087 0 0 1 0.156853,0.156851 0.15686087,0.15686087 0 0 1 -0.156853,0.156851 0.15686087,0.15686087 0 0 1 -0.15685,-0.156851 0.15686087,0.15686087 0 0 1 0.15685,-0.156851 z m -1.328759,0.39096 h 0.293365 v 0.138461 c 0,0.164823 0.132728,0.297551 0.297552,0.297551 h 1.475687 c 0.164823,0 0.29755,-0.132728 0.29755,-0.297551 v -0.138461 h 0.293463 v 2.654698 h -2.657617 z"
       inkscape:export-filename="new_icons/paste.svg"
       inkscape:export-xdpi="101.4932"
       inkscape:export-ydpi="101.4932" /></g></svg>
