<?xml version="1.0" encoding="UTF-8" standalone="no"?>
<svg
   width="3.7460022mm"
   height="3.6181107mm"
   viewBox="0 0 3.7460022 3.6181107"
   version="1.1"
   id="svg8"
   inkscape:version="1.2.2 (b0a8486541, 2022-12-01)"
   sodipodi:docname="icons.svg"
   xml:space="preserve"
   inkscape:export-filename="new_icons/downloads.svg"
   inkscape:export-xdpi="67.733368"
   inkscape:export-ydpi="67.733368"
   xmlns:inkscape="http://www.inkscape.org/namespaces/inkscape"
   xmlns:sodipodi="http://sodipodi.sourceforge.net/DTD/sodipodi-0.dtd"
   xmlns="http://www.w3.org/2000/svg"
   xmlns:svg="http://www.w3.org/2000/svg"
   xmlns:rdf="http://www.w3.org/1999/02/22-rdf-syntax-ns#"
   xmlns:cc="http://creativecommons.org/ns#"
   xmlns:dc="http://purl.org/dc/elements/1.1/"><defs
     id="defs2" /><sodipodi:namedview
     id="base"
     pagecolor="#ffffff"
     bordercolor="#666666"
     borderopacity="1.0"
     inkscape:pageopacity="0.0"
     inkscape:pageshadow="2"
     inkscape:zoom="45.254834"
     inkscape:cx="319.24766"
     inkscape:cy="230.38423"
     inkscape:document-units="mm"
     inkscape:current-layer="layer1"
     inkscape:document-rotation="0"
     showgrid="false"
     inkscape:window-width="1920"
     inkscape:window-height="1052"
     inkscape:window-x="0"
     inkscape:window-y="0"
     inkscape:window-maximized="1"
     inkscape:pagecheckerboard="0"
     inkscape:showpageshadow="0"
     inkscape:deskcolor="#d1d1d1"><inkscape:grid
       type="xygrid"
       id="grid1446" /></sodipodi:namedview><metadata
     id="metadata5"><rdf:RDF><cc:Work
         rdf:about=""><dc:format>image/svg+xml</dc:format><dc:type
           rdf:resource="http://purl.org/dc/dcmitype/StillImage" /><dc:title /></cc:Work></rdf:RDF></metadata><g
     inkscape:label="Layer 1"
     inkscape:groupmode="layer"
     id="layer1"
     transform="translate(-84.402124,-58.739687)"><path
       id="path4554"
       style="fill:#3daee9;fill-opacity:1;stroke-width:0.211962;stroke-opacity:0.945626"
       d="m 87.968851,59.615219 c -0.373296,0.186588 -0.681682,0.331612 -1.055068,0.545613 -0.331478,0.244443 0.139974,0.317087 0.680993,0.467482 0.112958,0.03027 0.295033,-0.03017 0.319562,-0.144493 0.145067,-0.452608 0.414483,-0.93567 0.05451,-0.868602 z m -0.732276,0.453248 c 0.01891,0.04376 0.466921,-0.244457 0.466921,-0.244457 -0.447604,-1.003676 -1.411169,-1.369458 -2.44942,-0.847119 -0.83571,0.482431 -1.092353,1.671717 -0.609821,2.507372 0.437326,0.757176 1.367077,1.074435 2.176031,0.742529 0.29112,-0.09337 0.182039,-0.611662 -0.21929,-0.506685 -0.598608,0.18772 -1.073793,0.0042 -1.477692,-0.493886 -0.36302,-0.628668 -0.151517,-1.465767 0.477201,-1.828698 0.799499,-0.383883 1.408816,0.141927 1.63607,0.670944 z"
       sodipodi:nodetypes="ccccccccccccccc"
       inkscape:export-filename="new_icons/reload.svg"
       inkscape:export-xdpi="109.13028"
       inkscape:export-ydpi="109.13028" /></g></svg>
