<?xml version="1.0" encoding="UTF-8" standalone="no"?>
<svg
   width="4.0356598mm"
   height="4.0000534mm"
   viewBox="0 0 4.0356598 4.0000534"
   version="1.1"
   id="svg8"
   inkscape:version="1.2 (dc2aedaf03, 2022-05-15)"
   sodipodi:docname="icons.svg"
   xml:space="preserve"
   inkscape:export-filename="new_icons/add_icon.svg"
   inkscape:export-xdpi="92.363678"
   inkscape:export-ydpi="92.363678"
   xmlns:inkscape="http://www.inkscape.org/namespaces/inkscape"
   xmlns:sodipodi="http://sodipodi.sourceforge.net/DTD/sodipodi-0.dtd"
   xmlns="http://www.w3.org/2000/svg"
   xmlns:svg="http://www.w3.org/2000/svg"
   xmlns:rdf="http://www.w3.org/1999/02/22-rdf-syntax-ns#"
   xmlns:cc="http://creativecommons.org/ns#"
   xmlns:dc="http://purl.org/dc/elements/1.1/"><defs
     id="defs2" /><sodipodi:namedview
     id="base"
     pagecolor="#ffffff"
     bordercolor="#666666"
     borderopacity="1.0"
     inkscape:pageopacity="0.0"
     inkscape:pageshadow="2"
     inkscape:zoom="11.313708"
     inkscape:cx="380.73281"
     inkscape:cy="172.71083"
     inkscape:document-units="mm"
     inkscape:current-layer="layer1"
     inkscape:document-rotation="0"
     showgrid="false"
     inkscape:window-width="1920"
     inkscape:window-height="1052"
     inkscape:window-x="0"
     inkscape:window-y="0"
     inkscape:window-maximized="1"
     inkscape:pagecheckerboard="0"
     inkscape:showpageshadow="0"
     inkscape:deskcolor="#d1d1d1" /><metadata
     id="metadata5"><rdf:RDF><cc:Work
         rdf:about=""><dc:format>image/svg+xml</dc:format><dc:type
           rdf:resource="http://purl.org/dc/dcmitype/StillImage" /><dc:title /></cc:Work></rdf:RDF></metadata><g
     inkscape:label="Layer 1"
     inkscape:groupmode="layer"
     id="layer1"
     transform="translate(-106.8295,-43.542918)"><path
       id="rect11227"
       style="fill:#3daee9;fill-opacity:0.980392;stroke:none;stroke-width:0;stroke-opacity:0.945626"
       d="m 109.66813,43.542948 c -0.0938,-0.0012 -0.18697,0.03233 -0.25786,0.100899 l -1.88469,1.822977 c -0.0662,0.05729 -0.11769,0.1578 -0.15222,0.256722 l -0.51386,1.243294 c -0.008,0.02036 -0.0136,0.04107 -0.016,0.0614 -0.009,0.03421 -0.0139,0.06948 -0.014,0.104911 -4e-5,0.225321 0.1826,0.408005 0.40792,0.40802 0.009,-3.2e-5 0.0185,-3.78e-4 0.0277,-10e-4 0.0114,0.0018 0.0231,0.0028 0.0352,0.0028 h 3.11965 c 0.10784,-1e-6 0.1946,-0.07321 0.1946,-0.164257 v -0.09606 c 0,-0.09104 -0.0868,-0.164361 -0.1946,-0.164361 h -2.51569 l 0.73943,-0.186782 c 0.0756,-0.01784 0.12347,-0.01861 0.22893,-0.105466 l 1.88819,-1.875905 c 0.14177,-0.13713 0.13871,-0.360885 -0.007,-0.501719 l -0.82488,-0.797835 c -0.0728,-0.07042 -0.16708,-0.106376 -0.26084,-0.107584 z m -1.38359,1.721768 0.79259,0.79259 -0.29437,0.294263 -0.79248,-0.792588 z m -0.53504,0.62247 0.67831,0.686239 -1.03583,0.247363 z"
       sodipodi:nodetypes="cscccccccscsssccccccccccccccccc" /></g></svg>
