<?xml version="1.0" encoding="UTF-8" standalone="no"?>
<svg
   width="4.5867996mm"
   height="3.8995018mm"
   viewBox="0 0 4.5867996 3.8995018"
   version="1.1"
   id="svg8"
   inkscape:version="1.2.2 (b0a8486541, 2022-12-01)"
   sodipodi:docname="icons.svg"
   xml:space="preserve"
   inkscape:export-filename="new_icons/downloads.svg"
   inkscape:export-xdpi="67.733368"
   inkscape:export-ydpi="67.733368"
   xmlns:inkscape="http://www.inkscape.org/namespaces/inkscape"
   xmlns:sodipodi="http://sodipodi.sourceforge.net/DTD/sodipodi-0.dtd"
   xmlns="http://www.w3.org/2000/svg"
   xmlns:svg="http://www.w3.org/2000/svg"
   xmlns:rdf="http://www.w3.org/1999/02/22-rdf-syntax-ns#"
   xmlns:cc="http://creativecommons.org/ns#"
   xmlns:dc="http://purl.org/dc/elements/1.1/"><defs
     id="defs2" /><sodipodi:namedview
     id="base"
     pagecolor="#ffffff"
     bordercolor="#666666"
     borderopacity="1.0"
     inkscape:pageopacity="0.0"
     inkscape:pageshadow="2"
     inkscape:zoom="8.0000004"
     inkscape:cx="325.12499"
     inkscape:cy="177.87499"
     inkscape:document-units="mm"
     inkscape:current-layer="layer1"
     inkscape:document-rotation="0"
     showgrid="false"
     inkscape:window-width="1920"
     inkscape:window-height="1052"
     inkscape:window-x="0"
     inkscape:window-y="0"
     inkscape:window-maximized="1"
     inkscape:pagecheckerboard="0"
     inkscape:showpageshadow="0"
     inkscape:deskcolor="#d1d1d1" /><metadata
     id="metadata5"><rdf:RDF><cc:Work
         rdf:about=""><dc:format>image/svg+xml</dc:format><dc:type
           rdf:resource="http://purl.org/dc/dcmitype/StillImage" /><dc:title /></cc:Work></rdf:RDF></metadata><g
     inkscape:label="Layer 1"
     inkscape:groupmode="layer"
     id="layer1"
     transform="translate(-83.73649,-51.720873)"><path
       id="path353"
       style="fill:#3dae4e;fill-opacity:1;fill-rule:nonzero;stroke:none;stroke-width:0.229345"
       d="m 84.195378,51.720874 c -0.252638,0 -0.458887,0.205732 -0.458887,0.45837 v 2.982247 c 0,0.252638 0.206249,0.458887 0.458887,0.458887 h 3.669543 c 0.252638,0 0.45837,-0.206249 0.45837,-0.458887 v -2.52336 c 0,-0.252639 -0.205732,-0.458887 -0.45837,-0.458887 h -1.83503 l -0.45837,-0.45837 z m 1.177189,1.434021 c 0.180659,0 0.397296,0.05757 0.63872,0.266134 0.01642,0.0139 0.02848,0.02406 0.03669,0.03101 0.01314,0.01042 0.03126,0.02448 0.05426,0.04186 0.254565,0.215511 0.453845,0.401381 0.607715,0.413929 0.192239,0.01568 0.322997,-0.173323 0.460954,-0.305408 0.150561,-0.149995 0.236745,-0.369686 0.383955,-0.364836 0.152021,0.01305 0.374461,0.162759 0.378272,0.318844 0.0022,0.132727 -0.123045,0.335397 -0.213424,0.457336 -0.217715,0.272259 -0.302887,0.328117 -0.517281,0.498161 -0.14617,0.118184 -0.384328,0.165365 -0.543636,0.165365 -0.180659,0 -0.390669,-0.102391 -0.630452,-0.307475 -0.01806,-0.0139 -0.03105,-0.02406 -0.03927,-0.03101 -0.01149,-0.01042 -0.02963,-0.02448 -0.05426,-0.04186 -0.254564,-0.215511 -0.459018,-0.323494 -0.613399,-0.323494 -0.144526,0 -0.242714,0.109901 -0.383956,0.245463 -0.141242,0.132088 -0.291951,0.335301 -0.401526,0.331246 -0.301615,-0.04194 -0.532582,-0.386868 -0.226342,-0.716236 0.223643,-0.277857 0.461546,-0.425452 0.607714,-0.543636 0.147811,-0.12166 0.295963,-0.135392 0.45527,-0.135392 z" /></g></svg>
