<?xml version="1.0" encoding="UTF-8" standalone="no"?>
<svg
   width="3.8362656mm"
   height="3.8363228mm"
   viewBox="0 0 3.8362656 3.8363228"
   version="1.1"
   id="svg8"
   inkscape:version="1.2.2 (b0a8486541, 2022-12-01)"
   sodipodi:docname="icons.svg"
   xml:space="preserve"
   inkscape:export-filename="new_icons/downloads.svg"
   inkscape:export-xdpi="67.733368"
   inkscape:export-ydpi="67.733368"
   xmlns:inkscape="http://www.inkscape.org/namespaces/inkscape"
   xmlns:sodipodi="http://sodipodi.sourceforge.net/DTD/sodipodi-0.dtd"
   xmlns="http://www.w3.org/2000/svg"
   xmlns:svg="http://www.w3.org/2000/svg"
   xmlns:rdf="http://www.w3.org/1999/02/22-rdf-syntax-ns#"
   xmlns:cc="http://creativecommons.org/ns#"
   xmlns:dc="http://purl.org/dc/elements/1.1/"><defs
     id="defs2" /><sodipodi:namedview
     id="base"
     pagecolor="#ffffff"
     bordercolor="#666666"
     borderopacity="1.0"
     inkscape:pageopacity="0.0"
     inkscape:pageshadow="2"
     inkscape:zoom="5.6568543"
     inkscape:cx="237.49949"
     inkscape:cy="223.7993"
     inkscape:document-units="mm"
     inkscape:current-layer="layer1"
     inkscape:document-rotation="0"
     showgrid="false"
     inkscape:window-width="1920"
     inkscape:window-height="1052"
     inkscape:window-x="0"
     inkscape:window-y="0"
     inkscape:window-maximized="1"
     inkscape:pagecheckerboard="0"
     inkscape:showpageshadow="0"
     inkscape:deskcolor="#d1d1d1"><inkscape:grid
       type="xygrid"
       id="grid1446" /></sodipodi:namedview><metadata
     id="metadata5"><rdf:RDF><cc:Work
         rdf:about=""><dc:format>image/svg+xml</dc:format><dc:type
           rdf:resource="http://purl.org/dc/dcmitype/StillImage" /><dc:title /></cc:Work></rdf:RDF></metadata><g
     inkscape:label="Layer 1"
     inkscape:groupmode="layer"
     id="layer1"
     transform="translate(-64.790735,-58.871538)"><path
       id="rect1376"
       style="fill:#3daee9;fill-opacity:1;stroke-width:0.304671;stroke-opacity:0.945626"
       d="m 64.895234,58.871582 c -0.05836,0.003 -0.104502,0.05091 -0.104502,0.110031 v 0.789498 c 0,0.06102 0.04899,0.110018 0.110019,0.110018 h 0.789497 c 0.06102,0 0.11003,-0.04899 0.11003,-0.110018 v -0.789498 c 0,-0.06102 -0.04899,-0.110031 -0.11003,-0.110031 h -0.789497 c -0.0019,0 -0.0037,-9.4e-5 -0.0055,0 z m 1.413366,0 c -0.05836,0.003 -0.104502,0.05091 -0.104502,0.110031 v 0.789498 c 0,0.06102 0.049,0.110018 0.11003,0.110018 h 0.789498 c 0.06102,0 0.110019,-0.04899 0.110019,-0.110018 v -0.789498 c 0,-0.06102 -0.04899,-0.110031 -0.110019,-0.110031 h -0.789498 c -0.0019,0 -0.0037,-9.4e-5 -0.0055,0 z m 1.413364,0 c -0.05836,0.003 -0.104501,0.05091 -0.104501,0.110031 v 0.789498 c 0,0.06102 0.04899,0.110018 0.110019,0.110018 h 0.789496 c 0.06102,0 0.11002,-0.04899 0.11002,-0.110018 v -0.789498 c 0,-0.06102 -0.04899,-0.110031 -0.11002,-0.110031 h -0.789496 c -0.0019,0 -0.0037,-9.4e-5 -0.0055,0 z m -2.82673,1.413367 c -0.05836,0.003 -0.104502,0.05091 -0.104502,0.110019 v 0.789497 c 0,0.06102 0.04899,0.110018 0.110019,0.110018 h 0.789497 c 0.06102,0 0.11003,-0.04899 0.11003,-0.110018 v -0.789497 c 0,-0.06102 -0.04899,-0.110019 -0.11003,-0.110019 h -0.789497 c -0.0019,0 -0.0037,-9.6e-5 -0.0055,0 z m 1.413366,0 c -0.05836,0.003 -0.104502,0.05091 -0.104502,0.110019 v 0.789497 c 0,0.06102 0.049,0.110018 0.11003,0.110018 h 0.789498 c 0.06102,0 0.110019,-0.04899 0.110019,-0.110018 v -0.789497 c 0,-0.06102 -0.04899,-0.110019 -0.110019,-0.110019 h -0.789498 c -0.0019,0 -0.0037,-9.6e-5 -0.0055,0 z m 1.413364,0 c -0.05836,0.003 -0.104501,0.05091 -0.104501,0.110019 v 0.789497 c 0,0.06102 0.04899,0.110018 0.110019,0.110018 h 0.789496 c 0.06102,0 0.11002,-0.04899 0.11002,-0.110018 v -0.789497 c 0,-0.06102 -0.04899,-0.110019 -0.11002,-0.110019 h -0.789496 c -0.0019,0 -0.0037,-9.6e-5 -0.0055,0 z m -2.82673,1.413365 c -0.05836,0.003 -0.104502,0.05091 -0.104502,0.110019 v 0.789498 c 0,0.06102 0.04899,0.11003 0.110019,0.11003 h 0.789497 c 0.06102,0 0.11003,-0.04901 0.11003,-0.11003 v -0.789498 c 0,-0.06102 -0.04899,-0.110019 -0.11003,-0.110019 h -0.789497 c -0.0019,0 -0.0037,-9.4e-5 -0.0055,0 z m 1.413366,0 c -0.05836,0.003 -0.104502,0.05091 -0.104502,0.110019 v 0.789498 c 0,0.06102 0.049,0.11003 0.11003,0.11003 h 0.789498 c 0.06102,0 0.110019,-0.04901 0.110019,-0.11003 v -0.789498 c 0,-0.06102 -0.04899,-0.110019 -0.110019,-0.110019 h -0.789498 c -0.0019,0 -0.0037,-9.4e-5 -0.0055,0 z m 1.413364,0 c -0.05836,0.003 -0.104501,0.05091 -0.104501,0.110019 v 0.789498 c 0,0.06102 0.04899,0.11003 0.110019,0.11003 h 0.789496 c 0.06102,0 0.11002,-0.04901 0.11002,-0.11003 v -0.789498 c 0,-0.06102 -0.04899,-0.110019 -0.11002,-0.110019 h -0.789496 c -0.0019,0 -0.0037,-9.4e-5 -0.0055,0 z" /></g></svg>
